<?xml version="1.0" standalone="no"?>
<!DOCTYPE svg PUBLIC "-//W3C//DTD SVG 20010904//EN"
 "http://www.w3.org/TR/2001/REC-SVG-20010904/DTD/svg10.dtd">
<svg version="1.0" xmlns="http://www.w3.org/2000/svg"
 width="1000.000000pt" height="1000.000000pt" viewBox="0 0 1000.000000 1000.000000"
 preserveAspectRatio="xMidYMid meet">
<metadata>
Created by potrace 1.14, written by Peter Selinger 2001-2017
</metadata>
<g transform="translate(0.000000,1000.000000) scale(0.100000,-0.100000)"
fill="#000000" stroke="none">
<path d="M0 5000 l0 -5000 5000 0 5000 0 0 5000 0 5000 -5000 0 -5000 0 0
-5000z m5205 4155 c40 -16 84 -62 85 -87 0 -10 6 -18 13 -18 24 0 292 -20 337
-25 25 -3 70 -7 100 -10 30 -3 62 -7 70 -10 8 -2 40 -7 70 -10 30 -3 71 -10
90 -15 19 -5 52 -12 74 -16 78 -12 287 -74 402 -120 416 -163 726 -406 855
-669 55 -114 71 -161 99 -295 17 -86 48 -313 48 -350 -1 -23 12 -191 17 -230
2 -19 7 -64 10 -100 3 -36 8 -72 10 -80 2 -8 6 -26 9 -40 2 -14 9 -44 15 -68
27 -98 34 -272 15 -382 -12 -70 -11 -80 12 -165 28 -104 64 -242 69 -266 2 -9
8 -34 14 -55 13 -45 41 -177 46 -214 2 -14 8 -46 14 -71 11 -48 20 -121 26
-199 4 -55 -19 -142 -49 -186 -29 -44 -63 -69 -128 -98 l-54 -24 -58 -153
c-33 -85 -67 -176 -76 -204 -10 -27 -47 -117 -84 -199 -71 -160 -70 -152 -44
-271 6 -27 22 -78 35 -112 23 -59 27 -63 57 -63 76 -1 165 -8 175 -14 20 -12
12 -46 -29 -127 -44 -87 -63 -122 -70 -129 -13 -13 -80 -121 -80 -129 0 -5 -3
-11 -7 -13 -5 -1 -35 -37 -68 -78 -33 -41 -79 -97 -104 -123 l-44 -48 22 -57
c50 -123 143 -300 193 -367 70 -92 131 -125 234 -125 104 0 165 21 212 75 78
88 96 219 89 624 -4 238 -8 297 -31 428 -14 84 -35 176 -46 205 -24 63 -24 65
-5 65 8 0 15 -4 15 -8 0 -5 7 -5 17 -2 11 4 14 3 9 -5 -5 -8 -2 -10 8 -6 9 4
18 -1 22 -10 3 -9 10 -13 15 -10 5 3 9 0 9 -6 0 -6 4 -9 9 -5 6 3 13 0 18 -8
4 -7 31 -27 60 -45 28 -18 57 -40 64 -48 7 -9 30 -24 52 -35 90 -46 275 -253
335 -374 42 -83 53 -152 59 -361 12 -371 -49 -669 -193 -954 -119 -234 -197
-308 -389 -369 -155 -50 -326 -60 -510 -30 -78 13 -96 19 -90 28 2 5 -29 18
-69 30 -74 22 -221 112 -317 195 -24 20 -46 36 -51 36 -21 0 -128 -267 -128
-322 0 -33 -17 -52 -65 -74 -133 -60 -429 -337 -713 -669 -90 -104 -177 -198
-195 -208 -28 -16 -45 -18 -127 -12 -92 7 -115 10 -190 21 -91 14 -145 17
-270 17 -142 0 -193 -4 -335 -27 -16 -3 -70 -8 -120 -11 -114 -7 -135 3 -230
110 -38 45 -125 144 -192 220 -228 261 -504 511 -610 554 -18 8 -33 17 -33 22
0 5 -5 8 -12 7 -7 -2 -21 32 -34 84 -40 153 -118 308 -204 407 l-29 34 -53
-54 c-153 -158 -339 -288 -478 -334 -123 -42 -132 -44 -252 -55 -184 -18 -436
17 -541 74 -77 40 -163 154 -251 326 -144 285 -205 583 -193 954 6 209 17 278
59 361 60 121 245 328 335 374 22 11 45 26 52 35 7 8 36 30 64 48 29 18 56 38
60 45 5 8 12 11 18 8 5 -4 9 -1 9 5 0 6 4 9 9 6 5 -3 12 1 15 10 4 9 13 14 22
10 10 -4 13 -2 8 6 -5 8 -2 9 9 5 10 -3 17 -3 17 2 0 4 7 8 15 8 19 0 19 -2
-5 -65 -11 -29 -32 -121 -46 -205 -23 -131 -27 -190 -31 -428 -7 -405 11 -536
89 -624 47 -53 108 -75 210 -75 89 0 163 33 213 95 57 69 127 193 179 316 27
63 64 147 82 188 19 41 32 76 30 78 -2 3 2 23 10 45 l14 40 -68 102 c-78 116
-162 277 -162 311 0 21 5 24 63 29 34 3 82 5 106 3 39 -2 45 1 58 27 26 51 53
138 64 208 9 61 8 71 -14 120 -13 29 -41 94 -62 143 -20 50 -45 108 -55 130
-16 37 -55 138 -118 311 -24 66 -27 70 -56 70 -95 0 -194 60 -241 145 -27 49
-30 62 -29 144 1 97 7 156 23 238 6 29 12 63 15 77 18 108 99 441 113 463 3 6
10 101 14 211 7 179 31 359 53 394 8 13 35 196 41 282 31 421 83 699 162 855
93 183 310 393 545 528 210 121 519 236 731 272 17 3 48 10 67 15 19 4 55 11
80 14 25 3 70 10 100 15 60 11 105 15 340 32 85 6 155 11 155 12 6 32 42 80
72 96 47 25 157 28 208 6z"/>
<path d="M4690 8958 c-47 -3 -112 -9 -145 -13 -33 -4 -76 -8 -95 -10 -19 -2
-50 -6 -68 -10 -17 -3 -49 -8 -69 -11 -21 -2 -55 -9 -76 -15 -21 -5 -51 -12
-66 -14 -27 -3 -55 -11 -201 -54 -207 -62 -429 -165 -595 -276 -97 -65 -295
-253 -343 -325 -56 -86 -111 -215 -127 -300 -3 -14 -11 -49 -20 -79 -8 -30
-12 -57 -10 -61 3 -4 0 -22 -5 -40 -5 -18 -12 -56 -14 -84 -13 -129 -17 -166
-25 -236 -4 -41 -8 -84 -8 -95 -1 -46 -14 -159 -27 -220 -7 -36 -11 -65 -7
-65 6 0 29 81 36 125 1 11 8 38 13 60 6 22 14 65 17 95 4 30 8 57 10 60 2 3 6
37 9 75 4 39 11 106 16 150 6 44 12 107 15 140 4 62 11 112 20 155 3 14 7 34
9 46 23 122 91 249 188 352 94 100 146 138 225 166 46 16 52 2 10 -23 -62 -38
-155 -124 -201 -186 -73 -98 -77 -106 -20 -55 76 71 314 216 314 191 0 -5 -28
-29 -62 -54 -35 -25 -75 -55 -89 -68 -14 -13 -74 -66 -132 -117 -59 -52 -107
-95 -107 -97 0 -2 55 35 123 82 124 86 202 132 196 115 -2 -5 -49 -49 -103
-98 -54 -49 -124 -118 -155 -154 -52 -59 -53 -62 -21 -42 19 12 55 33 80 47
25 14 80 48 123 75 97 62 115 64 45 7 -60 -49 -268 -252 -268 -261 0 -3 26 12
58 34 64 43 283 162 289 156 2 -2 -45 -39 -104 -82 -59 -43 -110 -81 -113 -84
-3 -3 -37 -31 -77 -63 -39 -32 -77 -64 -83 -72 -14 -17 5 -10 125 45 35 16 93
41 127 56 35 14 82 35 106 46 74 35 56 13 -35 -42 -129 -78 -328 -220 -308
-220 3 0 33 14 67 31 106 53 348 143 348 129 0 -5 -26 -23 -57 -41 -32 -18
-69 -40 -83 -50 -14 -9 -91 -60 -172 -113 -82 -54 -148 -100 -148 -102 0 -3 6
-2 13 3 33 21 463 200 470 196 5 -3 -9 -15 -30 -27 -88 -50 -114 -66 -265
-165 -87 -58 -156 -106 -155 -108 2 -2 46 17 98 41 172 80 209 96 222 96 7 0
17 4 23 9 14 14 134 55 140 48 3 -3 -16 -17 -43 -32 -123 -65 -515 -325 -490
-325 5 0 178 75 257 112 84 39 280 110 293 105 5 -1 -74 -49 -176 -105 -190
-104 -342 -198 -387 -239 -20 -19 -7 -16 85 21 94 37 333 136 458 190 61 26
42 4 -36 -42 -39 -24 -103 -63 -142 -87 -38 -25 -139 -86 -223 -136 -151 -92
-185 -118 -101 -80 204 92 615 228 568 187 -2 -2 -51 -27 -109 -57 -58 -29
-130 -67 -160 -84 -30 -18 -104 -58 -165 -89 -60 -32 -114 -63 -120 -68 -5 -6
4 -3 21 5 72 36 321 110 411 123 18 2 52 8 75 13 24 5 50 9 58 10 145 10 138
11 103 -4 -17 -8 -42 -16 -55 -19 -12 -2 -72 -21 -133 -41 -60 -20 -117 -39
-125 -40 -31 -7 -248 -90 -405 -155 -136 -56 -188 -83 -193 -98 -3 -8 16 -3
49 14 100 50 213 96 379 151 90 30 169 56 175 57 5 2 49 15 97 30 48 15 95 29
105 31 10 2 56 13 103 25 47 12 96 24 110 26 14 3 39 9 55 14 17 6 44 12 60
14 17 2 52 9 78 15 26 6 66 14 89 16 22 3 44 8 48 10 4 3 34 7 66 10 33 3 111
12 175 21 64 8 121 14 125 13 5 -2 74 1 154 5 80 4 199 9 265 11 l120 4 2 73
c4 150 14 238 28 238 16 0 30 -153 23 -254 l-4 -63 131 -8 c71 -4 137 -7 145
-7 8 0 69 -7 135 -14 66 -7 136 -14 155 -15 19 -1 62 -5 95 -10 102 -14 159
-21 175 -21 8 0 36 -4 62 -9 25 -4 73 -11 105 -14 32 -4 77 -11 101 -16 23 -5
58 -11 77 -14 19 -2 51 -9 72 -14 21 -6 55 -13 76 -15 21 -3 41 -7 45 -10 4
-2 27 -7 50 -11 23 -3 60 -12 82 -20 22 -8 40 -12 40 -10 0 2 19 -2 41 -11 23
-8 51 -16 63 -18 41 -7 372 -108 456 -138 47 -17 118 -46 159 -65 40 -18 76
-31 79 -28 3 3 7 70 8 148 2 126 -1 156 -27 267 -16 69 -32 159 -34 200 -3 41
-7 95 -10 120 -3 25 -8 74 -10 110 -8 126 -16 205 -20 220 -2 8 -7 40 -9 70
-6 64 -37 198 -67 291 -23 71 -73 165 -115 219 -33 41 -173 182 -223 224 -59
50 -213 145 -321 199 -166 83 -257 117 -485 181 -88 24 -310 66 -390 72 -27 3
-83 9 -122 14 -40 5 -160 13 -266 16 l-194 6 -7 -111 c-3 -61 -11 -336 -16
-611 -7 -357 -13 -506 -22 -519 -9 -15 -9 -25 0 -46 18 -39 16 -179 -3 -195
-12 -10 -18 -10 -31 1 -14 11 -15 49 -9 338 5 295 17 702 30 1013 5 109 4 117
-14 123 -23 7 -278 3 -401 -7z m324 -94 c9 -34 -2 -86 -17 -81 -7 2 -13 27
-15 55 -2 40 0 52 11 52 8 0 18 -12 21 -26z m928 -74 c45 -13 98 -61 98 -88 0
-42 -110 -53 -192 -19 -18 8 -37 14 -42 15 -11 1 -46 53 -46 68 0 6 15 19 33
28 33 17 78 16 149 -4z m-1653 -19 c28 -15 27 -36 -4 -67 -52 -51 -157 -76
-218 -50 -45 18 -46 35 -7 73 53 51 173 73 229 44z m725 -73 c10 -38 7 -75 -8
-87 -17 -15 -26 5 -26 58 0 53 22 72 34 29z m1865 -197 c57 -30 195 -162 239
-231 35 -54 114 -208 146 -284 23 -56 45 -145 51 -208 3 -29 9 -87 14 -128 5
-41 9 -82 9 -90 0 -31 12 -186 17 -220 3 -19 8 -71 11 -115 3 -44 9 -98 14
-120 5 -22 12 -65 15 -95 4 -30 10 -75 15 -100 9 -51 8 -44 16 -164 3 -49 1
-87 -3 -85 -5 2 -106 45 -224 96 -187 79 -382 156 -429 167 -8 3 -28 10 -45
16 -16 6 -37 13 -45 15 -8 2 -49 15 -90 28 -41 14 -90 28 -107 32 -18 3 -33
11 -33 16 0 9 64 6 133 -6 18 -3 46 -7 62 -9 102 -12 379 -92 458 -132 15 -8
27 -13 27 -10 0 2 -60 36 -132 75 -73 39 -182 98 -243 131 -60 33 -127 68
-147 76 -21 9 -38 20 -38 25 0 12 29 5 170 -42 63 -21 122 -41 130 -43 8 -2
31 -11 50 -19 19 -9 62 -25 95 -38 61 -23 134 -53 170 -72 49 -24 -6 14 -113
80 -64 39 -163 100 -220 135 -57 34 -133 81 -169 103 -79 48 -97 76 -25 40 27
-14 53 -25 57 -25 3 0 27 -10 53 -21 70 -32 279 -118 339 -139 28 -10 62 -24
75 -30 l23 -12 -22 21 c-48 46 -256 172 -493 299 -36 19 -69 39 -75 44 -23 23
121 -24 242 -78 143 -64 287 -123 290 -120 3 2 -4 9 -15 15 -11 6 -26 17 -34
24 -29 29 -361 243 -445 286 -13 6 -23 16 -23 21 0 6 8 6 23 0 12 -5 77 -32
143 -59 126 -52 229 -98 296 -132 21 -11 38 -18 38 -15 0 12 -398 268 -447
287 -13 5 -23 13 -23 19 0 9 24 3 75 -19 11 -5 76 -33 145 -61 125 -53 219
-94 253 -112 78 -41 -95 78 -340 232 -57 36 -103 68 -103 72 0 12 255 -84 351
-133 32 -16 61 -29 65 -29 20 0 -270 201 -346 240 -22 11 -40 25 -40 30 0 11
8 8 150 -55 170 -76 242 -105 238 -96 -10 25 -183 162 -312 247 -37 25 -66 47
-63 50 10 10 246 -117 327 -175 34 -25 34 -25 -9 24 -64 73 -189 192 -239 228
-24 17 -38 33 -32 35 6 2 19 -2 28 -10 9 -8 40 -27 67 -43 28 -16 87 -52 132
-82 45 -29 85 -53 88 -53 15 0 -147 167 -260 268 -38 35 -59 58 -45 51 40 -19
180 -108 238 -151 28 -21 52 -36 52 -33 0 8 -4 11 -110 105 -47 41 -87 78 -90
81 -10 12 -153 118 -164 122 -6 2 -8 8 -4 12 12 13 259 -131 298 -174 3 -3 20
-19 39 -36 l34 -30 -19 30 c-47 75 -160 193 -230 241 -30 21 -54 41 -54 45 0
10 47 -4 99 -30z m-1881 -27 c2 -52 -9 -81 -27 -70 -12 8 -15 84 -5 111 12 30
29 8 32 -41z m-4 -163 c8 -13 -5 -71 -16 -71 -14 0 -21 27 -14 55 6 25 20 33
30 16z m-6 -225 c3 -40 -10 -59 -35 -49 -14 5 -19 74 -6 87 18 18 38 -1 41
-38z m-14 -142 c9 -24 7 -77 -4 -94 -9 -13 -11 -13 -20 0 -10 14 -11 86 -3
103 7 12 21 8 27 -9z m0 -210 c10 -26 7 -92 -5 -100 -17 -10 -30 17 -27 61 1
22 3 43 5 48 7 12 21 8 27 -9z m0 -210 c9 -24 7 -77 -4 -94 -9 -13 -11 -13
-20 0 -10 14 -11 86 -3 103 7 12 21 8 27 -9z m0 -160 c9 -24 7 -77 -4 -94 -9
-13 -11 -13 -20 0 -10 14 -11 86 -3 103 7 12 21 8 27 -9z m6 -213 c0 -48 -12
-67 -29 -47 -10 12 -11 75 -2 116 1 3 8 -4 16 -14 8 -11 15 -36 15 -55z"/>
<path d="M4690 7000 c-58 -4 -150 -11 -205 -14 -55 -4 -128 -11 -161 -17 -34
-5 -85 -11 -114 -14 -29 -3 -71 -10 -92 -16 -21 -5 -53 -12 -71 -14 -18 -3
-75 -14 -127 -26 -52 -11 -111 -24 -130 -29 -19 -4 -71 -18 -115 -30 -44 -12
-93 -26 -110 -30 -16 -4 -43 -13 -60 -20 -16 -6 -30 -11 -30 -10 0 1 -34 -8
-75 -20 -41 -12 -76 -22 -77 -22 -2 1 -19 -6 -40 -14 -20 -9 -44 -17 -52 -19
-80 -19 -381 -153 -477 -213 -29 -19 -42 -51 -69 -173 -2 -9 -8 -33 -13 -55
-43 -163 -55 -215 -67 -289 -3 -16 -10 -50 -15 -75 -11 -46 -14 -69 -25 -179
-6 -60 -5 -65 22 -93 37 -39 99 -74 145 -82 50 -9 119 8 213 54 78 38 123 65
492 296 182 113 387 226 481 263 28 12 74 30 100 40 66 27 269 82 354 96 18 3
56 10 83 15 28 6 70 12 95 14 25 3 92 9 150 15 137 13 407 13 540 0 58 -6 128
-12 157 -15 28 -2 72 -8 97 -14 24 -5 66 -12 93 -15 26 -3 62 -10 78 -15 17
-6 44 -12 60 -14 17 -2 66 -14 110 -26 44 -12 87 -23 95 -25 48 -10 217 -73
360 -134 250 -106 439 -202 750 -381 121 -69 298 -150 357 -161 71 -15 145 -3
202 32 l33 20 -7 82 c-5 45 -9 91 -10 102 -4 54 -18 114 -25 110 -4 -3 -3 -24
2 -47 13 -59 4 -124 -26 -191 -14 -30 -26 -61 -26 -66 0 -6 -7 -11 -16 -11 -9
0 -12 5 -8 12 5 8 2 9 -12 3 -10 -5 -52 -10 -93 -11 -107 -4 -118 1 -395 189
-62 42 -217 133 -364 214 -55 30 -57 31 -50 38 2 3 26 -1 51 -9 26 -8 47 -12
47 -10 0 2 46 -13 103 -32 102 -35 293 -124 355 -164 58 -39 34 -13 -35 37
-66 48 -352 227 -376 236 -7 2 -9 7 -6 11 18 19 372 -140 511 -229 80 -52 68
-30 -21 37 -30 24 -63 50 -71 58 -9 8 -43 33 -74 55 -32 22 -71 50 -86 63 -15
12 -30 22 -33 22 -2 0 -34 20 -70 44 -36 24 -71 46 -79 48 -7 3 -10 9 -6 13
11 11 218 -92 354 -177 193 -120 185 -116 144 -79 -19 18 -60 51 -90 74 -30
23 -57 45 -60 48 -10 12 -216 155 -272 190 -32 18 -58 37 -58 41 0 14 169 -68
260 -127 251 -161 322 -203 285 -168 -153 144 -342 305 -423 362 -47 33 -33
37 27 7 88 -45 155 -91 371 -257 44 -34 33 -20 -56 72 -230 237 -254 263 -250
266 13 13 211 -139 279 -215 12 -12 32 -29 46 -38 24 -16 24 -14 -5 17 -16 19
-48 57 -70 84 -55 70 -63 79 -121 143 -52 56 -70 87 -35 61 80 -61 137 -112
195 -173 l68 -71 -52 90 c-28 50 -56 96 -61 103 -6 7 -9 15 -6 17 5 5 106
-106 144 -159 l20 -28 -4 64 c-6 95 1 113 20 48 21 -69 39 -137 44 -164 3 -21
18 -82 34 -146 5 -19 12 -48 15 -65 3 -16 11 -50 19 -75 18 -56 22 -17 5 45
-6 22 -12 49 -14 60 -1 11 -8 40 -15 65 -7 25 -13 52 -15 60 -2 8 -13 53 -25
100 -12 47 -23 94 -26 105 -2 11 -11 43 -20 70 -9 28 -18 56 -20 63 -4 13
-152 87 -234 117 -55 20 -144 48 -147 46 -2 0 -20 5 -40 13 -21 7 -65 21 -98
31 -33 10 -71 22 -85 26 -25 9 -131 38 -161 44 -20 4 -90 22 -154 40 -27 8
-66 17 -85 20 -19 3 -51 10 -71 16 -20 5 -58 12 -85 15 -27 3 -51 7 -55 10 -4
2 -28 6 -55 9 -27 3 -71 10 -99 15 -27 6 -77 12 -110 15 -33 3 -85 10 -115 15
-30 5 -88 12 -128 15 -40 3 -103 9 -140 14 -37 6 -116 13 -177 16 -60 4 -113
9 -117 11 -14 9 -491 12 -598 4z m-1642 -509 c-13 -15 -81 -98 -152 -182 -104
-124 -116 -142 -65 -93 129 122 291 248 310 242 5 -2 -50 -64 -123 -138 -190
-192 -278 -293 -169 -192 8 8 39 32 70 55 31 22 58 44 61 47 22 29 267 176
277 166 4 -3 4 -8 2 -9 -2 -2 -29 -22 -60 -45 -31 -22 -62 -46 -70 -54 -8 -7
-54 -48 -104 -90 -49 -42 -110 -95 -134 -118 -24 -23 -59 -53 -78 -67 -62 -47
-26 -35 59 19 85 55 171 110 256 162 49 31 216 116 226 116 3 0 6 -4 6 -10 0
-5 -5 -10 -10 -10 -18 0 -298 -193 -375 -258 -11 -9 -50 -41 -88 -70 -76 -61
-88 -77 -24 -34 191 130 490 293 505 277 4 -4 -1 -12 -11 -19 -113 -69 -350
-235 -367 -256 -3 -3 -38 -32 -77 -64 -72 -58 -103 -91 -40 -44 100 76 321
191 487 253 96 35 127 33 57 -4 -88 -47 -422 -266 -434 -284 -4 -6 9 -1 28 11
18 13 44 28 57 34 12 6 22 15 22 20 0 4 8 8 18 8 10 0 22 4 28 10 9 9 210 99
220 98 3 0 17 4 32 10 15 5 54 17 87 25 140 37 151 30 43 -26 -148 -76 -336
-190 -433 -262 -176 -131 -305 -166 -401 -110 -63 37 -87 83 -88 169 -1 75 5
125 22 191 16 59 32 127 37 152 3 20 18 80 46 187 6 22 13 49 15 60 11 59 16
76 26 82 7 4 9 -19 6 -71 l-4 -77 43 48 c24 27 60 70 80 96 20 26 39 46 41 43
2 -2 -22 -48 -53 -102 -32 -54 -60 -102 -63 -107 -3 -5 35 32 84 81 72 73 177
162 192 163 2 0 -7 -13 -20 -29z"/>
<path d="M2751 6914 c0 -11 3 -14 6 -6 3 7 2 16 -1 19 -3 4 -6 -2 -5 -13z"/>
<path d="M2741 6864 c0 -11 3 -14 6 -6 3 7 2 16 -1 19 -3 4 -6 -2 -5 -13z"/>
<path d="M2726 6699 c-4 -67 -5 -124 -2 -126 7 -7 66 27 66 38 0 7 -11 9 -26
6 l-26 -5 4 104 c2 57 1 104 -3 104 -3 0 -9 -55 -13 -121z"/>
<path d="M4690 6180 c-227 -20 -472 -69 -645 -130 -131 -46 -357 -158 -630
-312 -402 -227 -496 -269 -614 -270 -84 0 -137 14 -190 53 -24 17 -45 29 -47
26 -10 -9 74 -91 110 -108 60 -27 166 -25 253 4 37 13 156 72 263 131 222 122
535 280 691 349 255 112 540 151 1114 152 275 0 382 -4 500 -18 334 -40 524
-83 722 -163 276 -112 635 -269 795 -350 168 -84 234 -108 320 -119 39 -5 48
-3 57 12 9 18 3 21 -64 36 -94 22 -159 50 -485 207 -648 312 -961 417 -1430
480 -179 24 -553 34 -720 20z"/>
<path d="M4595 6019 c-147 -11 -295 -35 -402 -64 -48 -13 -89 -22 -92 -20 -2
3 -9 -2 -16 -11 -6 -9 -29 -17 -51 -19 -44 -3 -74 -13 -74 -26 0 -10 -67 -40
-95 -42 -11 -1 -26 -7 -33 -14 -7 -7 -20 -13 -28 -13 -21 0 -227 -102 -240
-119 -6 -8 -18 -15 -26 -17 -8 -1 -39 -13 -69 -26 -30 -14 -77 -35 -106 -48
-29 -13 -50 -27 -47 -32 3 -4 0 -8 -5 -8 -6 0 -26 -12 -44 -27 -116 -99 -156
-172 -158 -286 -1 -41 4 -84 10 -96 7 -11 9 -21 7 -21 -9 0 44 -140 77 -205
33 -67 15 -60 -30 11 -15 24 -32 44 -36 44 -5 0 -5 -5 -2 -11 4 -6 9 -25 11
-42 2 -18 6 -50 9 -72 9 -70 12 -339 4 -356 -5 -9 -10 -32 -12 -53 -2 -20 -7
-39 -10 -43 -13 -12 -7 -23 13 -23 11 0 23 7 26 15 4 8 10 15 15 15 6 0 19 9
31 20 36 33 33 13 -6 -45 -26 -39 -50 -62 -81 -77 -25 -12 -45 -25 -45 -30 0
-4 -7 -5 -15 -2 -8 4 -15 1 -15 -6 0 -6 -4 -9 -9 -6 -5 4 -32 1 -60 -5 -46
-10 -51 -13 -51 -38 0 -76 213 -339 355 -437 90 -63 116 -72 211 -69 49 2 109
6 134 9 104 14 313 13 339 0 14 -8 30 -14 34 -14 27 0 121 -101 161 -172 44
-80 98 -208 92 -222 -2 -6 -7 -2 -12 9 -6 18 -54 92 -76 120 -4 6 -16 21 -27
34 l-18 25 -11 -60 c-6 -32 -23 -112 -37 -177 -14 -64 -25 -130 -25 -145 0
-35 28 -62 64 -62 14 0 43 -7 64 -16 20 -9 55 -16 76 -15 21 0 45 -4 52 -10 8
-6 14 -8 14 -4 0 4 8 -3 19 -16 15 -19 21 -21 34 -11 11 10 20 9 43 -3 42 -22
51 -19 60 18 l8 32 3 -37 c4 -34 6 -36 26 -29 33 13 76 5 101 -18 28 -27 40
-27 33 0 -6 24 1 49 14 49 5 0 9 -17 9 -39 l0 -38 50 5 c38 3 57 0 86 -17 20
-12 38 -20 40 -19 3 4 13 50 18 84 4 29 16 45 27 38 5 -3 6 -11 2 -17 -5 -7
-8 -33 -8 -60 0 -39 3 -46 15 -40 33 15 117 14 155 -1 20 -9 39 -16 41 -16 2
0 7 18 10 40 8 51 20 51 29 0 4 -22 8 -40 10 -40 1 0 20 7 40 16 39 16 122 16
158 0 15 -7 17 -2 15 45 -1 30 -6 60 -11 67 -6 8 -6 12 1 12 11 0 30 -27 30
-43 0 -18 14 -87 17 -87 2 0 20 10 40 21 28 17 47 20 85 17 l50 -5 0 45 c0 38
2 43 15 32 10 -8 13 -21 9 -37 -6 -23 -5 -25 17 -18 13 4 26 11 29 15 9 13 90
18 98 6 4 -6 10 7 13 29 l6 40 12 -32 c14 -36 21 -39 39 -21 7 7 12 8 12 4 0
-5 7 -3 14 4 10 8 21 8 32 2 13 -7 27 -3 57 19 22 16 43 27 46 24 15 -9 61
-13 61 -6 0 11 71 31 107 31 17 0 36 6 42 14 15 18 7 110 -22 241 -14 61 -28
127 -31 148 -6 32 -10 36 -22 27 -8 -7 -14 -18 -14 -25 0 -7 -6 -15 -13 -18
-6 -2 -30 -34 -51 -71 -21 -37 -41 -65 -43 -63 -12 13 89 229 136 286 53 66
77 91 89 91 6 0 12 5 14 10 2 6 16 13 33 16 16 3 34 9 40 14 10 8 233 4 315
-6 85 -10 225 -11 238 -2 6 6 12 8 12 4 0 -4 18 3 40 14 22 11 40 25 40 30 0
6 5 10 11 10 22 0 200 177 247 245 15 22 30 42 33 45 16 14 67 99 77 127 8 25
8 34 -3 43 -17 14 -126 40 -137 34 -5 -3 -8 -1 -8 4 0 5 -17 17 -39 26 -36 17
-69 50 -98 101 -11 18 -14 15 -38 -39 -101 -228 -302 -406 -535 -476 -41 -12
-83 -25 -93 -29 -9 -3 36 -7 100 -8 65 -1 169 -4 231 -7 62 -2 112 0 112 4 0
5 7 7 15 4 8 -4 15 -2 15 4 0 5 11 13 25 16 14 4 25 11 25 16 0 6 5 10 11 10
6 0 24 9 40 21 16 11 29 17 29 13 0 -13 -120 -124 -135 -124 -8 0 -15 -4 -15
-10 0 -9 -158 -7 -230 4 -124 18 -295 25 -307 12 -11 -11 -23 -6 -23 10 0 8 4
13 9 9 5 -3 12 -1 16 5 4 6 -25 10 -83 10 -467 0 -839 352 -869 823 -6 94 -7
98 -35 114 -38 23 -35 36 7 31 30 -3 35 -1 35 17 0 86 78 283 154 389 271 378
804 474 1190 215 162 -109 304 -301 347 -470 7 -27 16 -49 20 -49 3 0 18 26
32 58 46 103 49 111 71 242 8 45 -14 144 -42 184 -32 47 -46 54 -447 237 -581
265 -622 279 -881 318 -403 61 -864 84 -1189 60z m-455 -309 c78 -6 161 -19
220 -36 52 -14 101 -26 108 -27 6 0 12 -4 12 -7 0 -9 61 -36 73 -32 4 1 7 -2
7 -7 0 -5 12 -14 28 -20 15 -6 50 -32 77 -57 l50 -45 -55 35 c-45 29 -64 36
-106 36 -35 0 -66 8 -97 25 -61 32 -254 98 -266 90 -5 -3 -13 0 -16 6 -4 5
-13 8 -21 5 -7 -3 -16 -1 -20 5 -3 6 -13 8 -21 5 -9 -4 -21 -2 -27 2 -11 10
-32 13 -78 13 -15 0 -30 4 -33 9 -7 12 6 12 165 0z m851 -80 c13 -27 28 -50
32 -50 5 0 6 23 2 50 -6 42 -4 50 9 50 9 0 17 -3 17 -7 7 -35 5 -303 -2 -303
-5 0 -9 8 -9 18 0 9 -7 30 -15 46 -8 15 -15 34 -15 41 0 8 -7 20 -15 29 -9 8
-16 19 -17 23 -1 17 -19 50 -53 101 l-35 52 39 0 c37 0 40 -3 62 -50z m242 0
c-1 -27 3 -50 8 -50 5 0 9 5 9 10 0 6 11 28 25 50 20 32 31 40 55 40 17 0 30
-4 30 -9 0 -5 -16 -33 -36 -62 -34 -51 -82 -147 -89 -179 -2 -8 -4 -17 -5 -20
-1 -3 -2 -8 -2 -12 1 -3 -4 -11 -11 -16 -9 -8 -12 19 -10 121 2 182 2 177 16
177 8 0 11 -16 10 -50z m847 39 c0 -5 -4 -7 -10 -4 -27 17 -351 -122 -408
-175 -11 -11 -26 -20 -31 -20 -5 0 -18 -11 -29 -25 -11 -14 -23 -25 -26 -25
-3 0 -24 -20 -46 -44 -30 -32 -46 -43 -61 -39 -19 5 -19 7 -2 32 9 14 22 36
28 48 23 44 144 150 202 178 32 15 60 30 63 34 11 16 101 36 185 41 50 4 100
7 113 8 12 1 22 -3 22 -9z m-2053 -165 c20 -4 33 -15 39 -32 l10 -27 -135 4
c-139 3 -286 -11 -352 -35 -33 -11 -37 -11 -32 2 5 13 17 18 36 15 4 0 7 4 7
10 0 6 7 9 15 5 8 -3 20 1 27 8 7 7 19 11 26 8 6 -2 12 1 12 8 0 6 4 9 9 5 5
-3 12 -1 16 5 4 6 9 9 13 6 4 -2 36 2 72 9 70 14 190 19 237 9z m173 -154
c121 -34 251 -102 322 -169 51 -48 76 -83 127 -179 95 -182 114 -196 252 -190
72 2 89 0 89 -11 0 -8 -3 -11 -6 -8 -4 4 -19 -2 -33 -12 -14 -10 -50 -31 -79
-46 -37 -20 -54 -36 -58 -54 -17 -82 -68 -240 -87 -272 -27 -44 -93 -119 -106
-119 -5 0 -11 -4 -13 -8 -5 -12 -98 -50 -164 -67 -75 -19 -125 -19 -150 1 -16
13 -16 15 -2 10 10 -3 20 -1 23 5 4 5 10 7 15 4 5 -3 21 0 37 7 15 6 34 10 41
9 6 -1 12 4 12 10 0 7 3 10 6 6 7 -7 64 20 64 30 0 3 -24 3 -52 -1 -61 -8
-430 -8 -498 -1 -25 3 -63 8 -85 11 -22 3 -48 5 -57 5 -10 0 -20 5 -23 10 -4
5 -11 7 -16 3 -5 -3 -16 0 -24 6 -8 7 -15 10 -15 7 0 -4 -20 2 -46 13 -59 26
-48 10 26 -36 33 -20 58 -39 56 -42 -3 -2 -20 -2 -38 2 -18 3 -37 6 -42 5 -5
0 -12 4 -16 11 -4 6 -15 12 -24 14 -65 9 -187 124 -232 217 -63 131 -91 267
-74 371 12 79 57 185 100 240 31 38 38 58 19 58 -12 0 -62 -33 -93 -62 -11
-10 -22 -16 -24 -13 -8 7 49 84 77 106 14 10 31 22 36 26 6 5 33 19 60 33 28
14 53 29 56 33 3 5 9 8 13 7 4 -1 43 8 87 20 119 32 189 39 334 35 93 -2 151
-10 205 -25z m900 -715 c0 -11 -6 -15 -19 -10 -27 8 -66 -42 -122 -160 -53
-111 -61 -114 -25 -9 56 161 75 189 128 193 29 1 38 -2 38 -14z m152 -12 c14
-16 30 -41 36 -58 6 -16 24 -67 41 -112 16 -46 27 -83 23 -83 -4 0 -27 44 -52
98 -52 112 -93 166 -121 157 -11 -4 -19 -2 -19 3 0 33 59 29 92 -5z m-141
-149 c16 -14 20 -14 44 2 27 17 28 17 46 -7 10 -13 19 -28 19 -32 0 -11 182
-460 207 -513 5 -10 37 -75 71 -144 34 -69 67 -138 73 -155 15 -39 11 -114 -6
-141 -32 -50 -213 -124 -301 -124 -34 0 -51 6 -75 28 -31 28 -32 33 -39 142
l-2 45 -9 -50 c-4 -27 -15 -69 -24 -92 -14 -37 -22 -44 -58 -54 -51 -14 -155
-5 -206 18 -20 9 -38 17 -41 18 -88 29 -132 73 -133 133 0 56 9 80 82 224 37
73 77 158 90 188 13 30 29 69 37 86 32 72 97 233 111 274 26 78 72 170 85 170
6 0 19 -7 29 -16z m-1721 -98 c0 -12 48 -73 86 -110 64 -63 125 -103 204 -136
30 -13 59 -27 64 -31 11 -10 -35 -6 -52 5 -7 4 -16 4 -22 1 -5 -3 -10 -1 -10
5 0 7 -7 10 -15 6 -8 -3 -15 -2 -15 2 0 4 -27 18 -60 31 -33 13 -60 27 -60 31
0 4 -11 12 -23 17 -29 14 -89 102 -117 174 l-21 53 20 -18 c12 -11 21 -24 21
-30z m1353 -52 c-31 -69 -114 -184 -143 -199 -16 -8 -34 -21 -42 -28 -30 -30
-136 -57 -223 -57 -47 0 -85 4 -85 9 0 12 27 22 44 15 8 -3 17 0 21 5 3 6 11
9 16 5 6 -3 18 -3 27 1 9 4 26 9 37 10 35 5 155 67 214 110 38 28 102 98 122
134 28 51 36 47 12 -5z m-1409 -409 c8 -8 19 -15 25 -15 6 0 11 -4 11 -10 0
-5 11 -12 25 -16 14 -3 25 -11 25 -16 0 -6 7 -8 15 -4 8 3 15 1 15 -3 0 -5 48
-7 108 -5 348 14 420 11 438 -17 8 -14 -2 -23 -16 -14 -21 13 -184 7 -315 -11
-74 -11 -211 -12 -230 -2 -36 19 -94 69 -115 99 -22 30 -13 40 14 14z m1338
-108 c-5 -7 -21 -45 -36 -85 -46 -129 -30 -253 39 -298 14 -9 25 -21 25 -26 0
-6 -6 -6 -14 1 -8 7 -24 14 -36 16 -32 6 -79 62 -86 103 -9 45 9 119 48 207
40 87 61 121 66 106 2 -6 -1 -17 -6 -24z m969 -71 c50 -105 68 -180 55 -231
-8 -33 -57 -84 -86 -90 -12 -2 -28 -9 -36 -16 -27 -22 -14 4 15 30 82 74 87
186 16 346 -27 62 -28 65 -19 65 3 0 28 -47 55 -104z m-1501 -426 c-17 -141
-14 -168 21 -201 28 -26 29 -29 10 -29 -12 0 -21 4 -21 9 0 5 -10 13 -22 17
-41 13 -52 31 -38 64 7 16 10 36 7 45 -4 8 -1 17 4 21 6 3 9 15 6 25 -3 10 -1
19 4 21 5 2 10 21 11 43 2 32 17 69 25 61 1 0 -3 -35 -7 -76z m1993 47 c-3 -4
1 -14 7 -22 6 -8 9 -18 7 -22 -3 -5 1 -38 8 -73 22 -100 20 -116 -15 -132 -16
-7 -30 -16 -30 -20 0 -5 -9 -8 -21 -8 -19 0 -18 3 11 30 l33 31 -7 110 c-4 61
-10 118 -13 127 -6 14 -5 15 9 2 9 -8 14 -19 11 -23z m-1133 -75 c41 -19 87
-49 103 -66 l27 -31 30 33 c17 18 30 29 30 25 0 -5 6 -1 13 7 15 19 135 72
147 65 5 -3 10 1 13 7 2 7 8 9 13 5 9 -9 -36 -48 -46 -42 -15 9 -164 -137
-181 -177 -15 -36 -24 -35 -39 2 -21 51 -139 161 -201 187 -35 14 -40 38 -6
28 12 -4 56 -23 97 -43z"/>
<path d="M3470 5199 c0 -5 5 -7 10 -4 6 3 10 8 10 11 0 2 -4 4 -10 4 -5 0 -10
-5 -10 -11z"/>
<path d="M3624 5174 c-44 -21 -97 -80 -129 -141 -23 -46 -27 -65 -27 -148 -1
-52 2 -98 5 -102 4 -3 7 7 8 23 1 66 10 116 30 166 21 55 99 171 134 200 25
21 19 22 -21 2z"/>
<path d="M3770 4921 c-103 -54 -108 -190 -9 -264 19 -13 43 -19 79 -19 157 0
209 210 70 283 -19 11 -51 19 -70 19 -19 0 -51 -8 -70 -19z"/>
<path d="M4240 4921 c-103 -54 -108 -190 -9 -264 19 -13 43 -19 79 -19 157 0
209 210 70 283 -19 11 -51 19 -70 19 -19 0 -51 -8 -70 -19z"/>
<path d="M4690 4624 c-21 -41 -70 -97 -118 -136 -29 -24 -150 -75 -196 -84
-30 -5 -35 -9 -22 -16 10 -5 23 -5 35 2 11 5 26 7 34 4 8 -3 18 0 22 5 3 6 10
9 15 6 5 -3 26 4 47 15 21 11 43 20 49 20 34 0 162 170 152 201 -2 6 -10 -2
-18 -17z"/>
<path d="M4293 4383 c9 -2 23 -2 30 0 6 3 -1 5 -18 5 -16 0 -22 -2 -12 -5z"/>
<path d="M7330 5806 c0 -2 8 -10 18 -17 15 -13 16 -12 3 4 -13 16 -21 21 -21
13z"/>
<path d="M7200 5776 c0 -2 8 -10 18 -17 15 -13 16 -12 3 4 -13 16 -21 21 -21
13z"/>
<path d="M6102 5480 c-286 -39 -524 -230 -622 -498 -76 -208 -61 -426 43 -627
58 -113 199 -254 312 -312 137 -71 209 -88 365 -88 156 0 228 17 365 88 113
58 254 199 312 312 204 396 54 854 -346 1055 -119 59 -295 88 -429 70z m276
-74 c135 -37 290 -136 369 -235 182 -230 213 -508 86 -771 -86 -178 -262 -320
-459 -370 -103 -27 -245 -27 -348 0 -197 50 -373 192 -459 370 -127 263 -94
550 88 774 85 104 259 210 385 235 30 6 64 13 75 15 36 9 209 -3 263 -18z"/>
<path d="M6130 5118 c-161 -25 -296 -158 -330 -325 -20 -96 -16 -99 70 -49 62
36 80 53 110 102 49 82 106 116 208 123 69 6 85 11 149 51 65 40 71 46 55 58
-44 33 -178 54 -262 40z"/>
<path d="M6467 4914 c-31 -19 -57 -39 -57 -43 0 -4 6 -16 14 -26 13 -19 15
-18 59 5 77 41 82 46 69 75 -6 14 -15 25 -20 25 -4 0 -33 -16 -65 -36z"/>
<path d="M6513 4804 c-59 -34 -61 -36 -56 -68 13 -83 -55 -203 -141 -249 -64
-33 -175 -31 -240 5 l-48 28 -59 -36 c-33 -19 -59 -39 -59 -44 0 -11 65 -67
98 -83 15 -8 44 -20 65 -27 l37 -12 241 144 c187 111 241 149 247 168 16 56 4
211 -16 210 -4 -1 -35 -17 -69 -36z"/>
<path d="M5901 4577 c-61 -36 -67 -45 -48 -72 13 -17 17 -17 76 19 33 21 61
40 61 44 -1 8 -26 42 -31 42 -2 0 -28 -15 -58 -33z"/>
<path d="M6363 4447 c-111 -67 -205 -126 -210 -131 -16 -17 142 2 199 23 85
33 193 137 221 214 3 9 3 17 -1 16 -4 0 -98 -56 -209 -122z"/>
<path d="M3030 5422 c-30 -15 -56 -27 -58 -28 -5 -3 39 -148 47 -157 4 -4 8
16 8 44 0 34 10 69 30 110 16 32 29 59 29 58 -1 0 -26 -12 -56 -27z"/>
<path d="M7215 5374 c19 -47 26 -90 21 -118 -10 -48 9 -18 32 51 l20 62 -21 6
c-62 18 -60 18 -52 -1z"/>
<path d="M2911 5371 c-11 -7 -9 -22 12 -82 13 -41 33 -102 42 -136 10 -35 22
-63 27 -63 10 0 11 -3 -8 77 -9 37 -18 82 -21 98 -2 17 -8 45 -13 64 -5 19 -7
38 -4 43 7 11 -17 10 -35 -1z"/>
<path d="M7315 5361 c5 -9 -48 -258 -71 -331 -4 -10 -2 -11 4 -5 9 9 112 311
112 326 0 4 -11 9 -25 11 -13 3 -23 2 -20 -1z"/>
<path d="M2990 5073 c1 -5 8 -19 16 -33 8 -14 13 -17 10 -7 -3 10 -6 25 -6 33
0 8 -4 14 -10 14 -5 0 -10 -3 -10 -7z"/>
<path d="M7084 4930 c-30 -46 -31 -51 -22 -102 13 -65 4 -232 -17 -316 -18
-73 -12 -89 47 -122 43 -24 43 -24 22 67 -16 68 -20 279 -8 388 3 28 6 62 7
77 1 14 5 30 10 34 4 4 7 11 7 16 0 19 -17 4 -46 -42z"/>
<path d="M1941 4073 c-98 -125 -171 -282 -202 -438 -20 -98 -17 -300 5 -405
24 -111 78 -264 130 -371 114 -228 244 -353 421 -404 84 -25 243 -16 342 18
199 69 459 275 686 546 l37 45 0 104 0 104 -59 -90 c-57 -86 -177 -224 -212
-242 -9 -5 8 27 38 72 109 163 162 296 170 428 l5 85 -45 -76 c-88 -152 -154
-232 -248 -305 -32 -25 -59 -43 -59 -39 0 3 11 23 24 44 87 137 186 376 204
492 8 50 6 58 -10 68 -15 9 -20 8 -25 -6 -69 -191 -241 -460 -386 -606 -65
-65 -171 -150 -199 -160 -17 -6 18 -44 100 -109 35 -28 61 -52 59 -54 -11 -11
-147 35 -247 83 -104 50 -123 64 -211 152 -82 82 -103 110 -143 191 -87 177
-142 479 -133 730 2 80 10 160 17 178 7 18 10 35 8 38 -3 2 -33 -31 -67 -73z"/>
<path d="M7996 4125 c20 -86 23 -120 24 -235 0 -239 -57 -529 -136 -690 -40
-81 -61 -109 -143 -191 -88 -88 -107 -102 -211 -152 -100 -48 -236 -94 -247
-83 -2 2 24 26 59 54 82 65 117 103 100 109 -28 10 -134 95 -198 160 -90 90
-170 195 -248 327 -69 116 -71 116 -82 13 -6 -61 -5 -66 41 -157 26 -51 58
-111 71 -132 13 -20 24 -40 24 -44 0 -7 -72 47 -119 90 l-34 31 7 -134 c3 -73
9 -137 11 -142 3 -4 7 -50 10 -101 l4 -93 38 -33 c130 -115 280 -209 396 -249
99 -34 258 -43 342 -18 177 51 307 176 421 404 52 107 106 260 130 371 22 105
25 307 5 405 -35 179 -120 348 -246 490 l-26 30 7 -30z"/>
<path d="M3725 3608 c-3 -7 -4 -68 -2 -136 2 -68 0 -125 -5 -128 -8 -5 -11 12
-28 156 -12 101 -17 114 -39 101 -11 -7 -13 -46 -13 -187 1 -120 -2 -172 -8
-156 -9 20 -21 136 -20 191 0 12 -3 28 -7 33 -3 6 -7 27 -9 47 -3 35 -25 61
-51 61 -13 0 -18 -32 -7 -43 8 -8 9 -22 18 -212 3 -77 2 -165 -3 -195 -8 -52
-9 -53 -10 -15 -2 71 -30 288 -47 367 -10 47 -22 79 -31 83 -12 4 -14 0 -10
-17 31 -124 24 -557 -12 -753 -7 -36 -4 -45 27 -85 20 -25 41 -49 47 -55 38
-33 121 -203 131 -270 1 -5 2 -12 3 -15 3 -6 12 -70 14 -94 1 -12 23 -29 67
-50 36 -17 69 -37 73 -43 4 -7 14 -13 21 -13 8 0 16 -7 20 -15 3 -8 10 -15 16
-15 23 0 314 -291 390 -390 25 -33 70 -88 103 -125 32 -36 42 -49 93 -114 111
-145 120 -150 286 -145 67 2 143 6 168 9 121 13 151 15 235 15 88 0 117 -2
240 -16 68 -8 282 -10 305 -3 22 6 89 75 151 155 30 38 57 71 61 72 5 2 8 9 8
16 0 7 10 22 23 33 12 11 33 35 47 52 33 42 63 77 111 128 21 23 39 43 39 46
0 6 213 217 219 217 3 0 14 9 26 20 48 46 66 60 75 60 6 0 10 3 10 8 0 4 27
20 60 37 33 16 60 33 60 37 0 4 7 8 15 8 9 0 16 10 16 23 5 79 42 204 81 275
35 62 33 59 83 117 33 37 35 45 37 115 2 107 1 144 -8 245 -17 187 -6 482 21
525 3 6 -2 10 -12 10 -15 0 -21 -16 -36 -92 -17 -90 -44 -291 -49 -373 -1 -22
-5 41 -8 140 -3 99 -2 189 1 200 4 11 10 46 13 78 8 58 7 59 -16 52 -34 -10
-37 -16 -42 -65 -3 -25 -6 -47 -7 -50 -4 -10 -9 -57 -13 -128 -2 -40 -8 -78
-14 -84 -8 -8 -11 36 -11 162 0 132 -3 175 -13 181 -7 5 -16 5 -19 1 -9 -10
-29 -154 -29 -212 0 -28 -4 -50 -10 -50 -13 0 -12 -1 -14 149 -1 85 -5 125
-13 128 -13 5 -22 -20 -27 -70 -2 -19 -6 -39 -9 -45 -4 -5 -7 -21 -7 -33 0
-13 0 -76 -1 -139 0 -63 1 -126 4 -140 2 -14 7 -44 11 -67 4 -24 12 -43 17
-43 6 0 8 -4 5 -9 -3 -5 -1 -33 5 -62 10 -50 11 -114 4 -199 -3 -33 -20 -90
-28 -90 -2 0 -2 26 1 58 5 71 -7 62 -38 -28 -26 -76 -67 -159 -121 -248 -22
-35 -39 -66 -39 -68 0 -24 -271 -344 -292 -344 -10 0 22 52 39 63 7 4 13 14
13 21 0 8 7 19 16 26 28 24 94 148 94 177 0 29 31 95 56 121 15 14 54 86 54
98 0 4 -18 -14 -41 -40 -22 -25 -44 -46 -47 -46 -4 0 -8 21 -8 46 -2 64 -14
71 -52 30 -17 -19 -44 -42 -59 -51 -16 -9 -38 -33 -48 -53 -22 -40 -81 -86
-101 -78 -7 3 -30 -13 -52 -34 -28 -28 -51 -41 -80 -46 -37 -6 -42 -10 -48
-40 -3 -18 -13 -39 -22 -46 -13 -11 -14 -10 -8 15 l7 28 -40 -26 c-21 -15 -54
-29 -73 -32 -41 -6 -41 -6 -53 -56 -5 -22 -16 -43 -24 -45 -9 -3 -11 0 -6 8 8
13 16 60 10 60 -2 0 -11 -7 -19 -16 -19 -18 -35 -22 -92 -23 -37 -1 -42 -4
-47 -28 -3 -16 -11 -41 -17 -57 -16 -43 -32 -20 -18 27 6 20 9 40 6 43 -3 3
-29 -6 -57 -20 -31 -16 -67 -26 -95 -26 l-44 0 -6 -45 c-4 -25 -11 -45 -15
-45 -5 0 -12 20 -15 45 l-7 45 -45 0 c-28 0 -63 9 -95 26 -28 14 -53 24 -55
21 -2 -2 1 -18 7 -35 7 -20 7 -37 1 -48 -8 -14 -13 -7 -28 39 l-18 57 -40 0
c-24 0 -55 9 -75 21 -38 23 -49 19 -34 -14 6 -13 7 -30 3 -37 -6 -9 -12 1 -21
31 -14 51 -26 67 -54 71 -12 2 -39 15 -60 28 -55 34 -54 34 -48 11 3 -12 1
-21 -5 -21 -6 0 -16 17 -22 39 -9 34 -14 39 -46 44 -44 7 -101 45 -108 71 -3
12 -10 17 -21 12 -28 -10 -75 23 -111 79 -19 30 -40 55 -47 55 -7 0 -30 18
-52 40 -21 21 -42 37 -47 34 -4 -3 -8 -27 -8 -55 0 -27 -4 -49 -9 -49 -5 0
-28 21 -50 46 -43 50 -52 49 -20 -1 10 -16 22 -37 26 -45 4 -8 19 -33 35 -54
15 -21 28 -52 28 -68 0 -16 10 -47 21 -70 28 -55 110 -178 119 -178 4 0 12
-12 19 -26 11 -26 11 -26 -26 5 -139 114 -397 502 -424 639 0 4 -5 15 -10 25
-17 30 -29 18 -23 -23 5 -33 3 -39 -9 -34 -9 3 -13 12 -10 20 3 8 1 20 -5 27
-15 19 -7 244 12 302 28 90 31 147 27 407 -1 15 -5 30 -11 33 -6 4 -8 10 -5
15 3 5 1 28 -5 50 -11 40 -26 52 -35 28z m3028 -378 c3 -11 1 -18 -4 -14 -5 3
-9 12 -9 20 0 20 7 17 13 -6z m-3158 -522 c93 -101 144 -194 175 -318 8 -30
24 -57 49 -80 44 -41 91 -102 91 -118 0 -7 -8 -5 -19 6 -54 50 -80 71 -118 96
-26 16 -43 34 -43 45 0 56 -108 321 -130 321 -6 0 -10 5 -10 11 0 7 -16 32
-36 55 -54 66 -24 53 41 -18z m3101 3 c-25 -33 -46 -63 -46 -66 0 -4 -9 -20
-21 -37 -27 -37 -73 -156 -90 -232 -11 -50 -18 -62 -46 -78 -18 -11 -33 -24
-33 -30 0 -5 -3 -7 -7 -5 -5 3 -28 -15 -53 -39 -24 -24 -46 -42 -48 -39 -6 6
50 84 94 132 28 29 43 57 51 95 21 90 91 214 164 290 36 37 69 68 73 68 4 0
-13 -27 -38 -59z m-1832 -826 c116 -13 180 -27 234 -52 30 -14 36 -14 80 5 60
25 100 34 222 47 25 3 63 7 85 11 22 3 51 1 65 -4 22 -8 20 -10 -25 -17 -28
-5 -59 -9 -71 -10 -11 -1 -25 -5 -32 -9 -7 -4 -16 -5 -21 -1 -5 3 -12 1 -16
-4 -3 -6 -12 -8 -20 -4 -8 3 -15 0 -15 -7 0 -6 -4 -9 -9 -6 -11 7 -134 -38
-178 -65 l-32 -20 -43 25 c-52 30 -158 67 -169 60 -5 -3 -9 0 -9 6 0 7 -7 10
-15 7 -8 -4 -17 -2 -20 4 -4 5 -11 7 -16 4 -5 -4 -14 -3 -20 1 -7 4 -27 8 -46
10 -48 4 -73 13 -73 26 0 7 19 8 56 3 31 -4 70 -8 88 -10z m-315 -317 c25 -26
59 -52 76 -58 36 -11 246 -39 313 -41 41 -2 38 -3 -23 -10 -56 -6 -250 -12
-301 -10 -21 2 -66 55 -110 131 -47 80 -58 111 -22 64 12 -16 42 -50 67 -76z
m1244 75 c-14 -38 -112 -180 -128 -187 -23 -8 -231 -7 -320 2 l-70 8 102 7
c143 11 259 33 296 56 18 11 52 45 76 75 47 60 54 66 44 39z"/>
<path d="M3815 3593 c18 -86 19 -94 24 -178 1 -25 3 -27 12 -13 5 10 8 62 7
115 -3 93 -4 98 -26 101 -20 3 -22 0 -17 -25z"/>
<path d="M6406 3604 c-8 -21 -6 -168 4 -229 l7 -50 4 50 c1 28 4 66 5 85 5 71
16 135 26 148 8 9 4 12 -15 12 -14 0 -28 -7 -31 -16z"/>
<path d="M3842 3345 c0 -16 2 -22 5 -12 2 9 2 23 0 30 -3 6 -5 -1 -5 -18z"/>
<path d="M4146 3004 c-3 -9 -6 -27 -6 -42 0 -28 -14 -21 -24 13 -3 11 -4 -15
-1 -58 2 -43 9 -85 15 -92 11 -13 64 -15 76 -2 3 3 6 39 7 80 1 68 -1 78 -22
96 -29 25 -37 26 -45 5z"/>
<path d="M6068 2998 c-21 -21 -23 -30 -20 -100 2 -43 7 -79 10 -79 74 -13 84
-2 88 99 2 42 1 68 -2 57 -11 -38 -21 -36 -28 4 -7 47 -16 50 -48 19z"/>
<path d="M4251 2964 c0 -11 3 -14 6 -6 3 7 2 16 -1 19 -3 4 -6 -2 -5 -13z"/>
<path d="M4284 2950 c-4 -16 -13 -30 -20 -30 -20 0 -18 -92 1 -130 12 -24 22
-30 47 -30 l31 0 -6 61 c-3 34 -1 72 3 85 7 17 4 29 -11 48 -27 34 -38 33 -45
-4z"/>
<path d="M5939 2963 c-10 -11 -14 -45 -14 -110 0 -91 0 -93 23 -93 13 0 30 6
38 14 21 21 36 113 27 166 l-7 45 -7 -35 -6 -35 -12 33 c-15 36 -23 39 -42 15z"/>
<path d="M4404 2923 c-3 -16 -10 -39 -14 -53 -7 -22 -9 -20 -10 15 -1 37 -2
38 -12 15 -23 -57 14 -218 51 -222 9 0 23 -2 31 -3 22 -2 31 5 23 18 -9 15 -8
180 1 196 9 14 -30 61 -51 61 -7 0 -15 -12 -19 -27z"/>
<path d="M5813 2935 c-20 -14 -21 -24 -21 -138 l0 -124 31 1 c44 1 71 58 74
151 0 38 -3 77 -8 85 -6 11 -8 4 -9 -22 0 -21 -5 -38 -11 -38 -5 0 -7 4 -4 10
7 12 -13 90 -23 90 -4 0 -17 -7 -29 -15z"/>
<path d="M4550 2925 c-6 -7 -12 -34 -13 -59 -1 -31 -6 -46 -16 -46 -9 0 -12
11 -9 40 2 22 0 40 -4 40 -9 0 -11 -24 -9 -121 1 -80 10 -106 49 -145 26 -27
55 -34 92 -25 6 1 4 78 -3 191 -6 88 -57 162 -87 125z"/>
<path d="M5668 2918 c-31 -26 -47 -61 -41 -90 3 -16 0 -61 -7 -101 -15 -89 -5
-126 35 -123 15 0 41 16 63 39 33 34 37 44 42 105 3 37 2 87 -1 112 -7 49 -12
36 -9 -20 2 -51 -21 -24 -25 29 -5 61 -22 76 -57 49z"/>
<path d="M4722 2857 c-7 -18 -12 -43 -12 -55 0 -11 -4 -24 -10 -27 -6 -4 -10
12 -10 39 0 28 -5 46 -11 46 -11 0 -10 -23 6 -225 4 -52 60 -95 124 -95 43 0
47 18 43 173 -3 108 -6 129 -20 135 -9 3 -23 12 -30 19 -8 7 -17 11 -22 8 -5
-3 -11 -1 -15 5 -12 20 -31 10 -43 -23z"/>
<path d="M5495 2880 c-4 -6 -10 -8 -14 -5 -5 2 -19 -4 -31 -15 -13 -11 -26
-20 -30 -20 -4 0 -5 -24 -2 -53 2 -29 -1 -93 -7 -142 -12 -98 -9 -105 42 -105
49 0 97 27 111 62 19 44 33 258 17 258 -6 0 -11 -18 -11 -44 0 -25 -4 -47 -9
-51 -6 -3 -10 3 -9 12 0 27 -10 92 -17 103 -8 13 -32 13 -40 0z"/>
<path d="M4929 2838 c-6 -11 -9 -29 -6 -39 3 -10 1 -22 -5 -25 -5 -3 -7 -16
-4 -28 2 -11 -1 -29 -9 -40 -13 -16 -14 -14 -18 30 -2 27 -4 4 -4 -51 0 -99
15 -165 37 -165 6 0 18 -6 25 -14 9 -9 36 -14 72 -14 100 0 93 -13 93 171 l0
162 -38 17 c-53 24 -129 22 -143 -4z"/>
<path d="M5187 2841 l-32 -16 -3 -162 c-4 -184 -10 -172 88 -171 41 0 65 6 93
24 20 13 38 30 39 37 8 70 11 257 4 264 -3 4 -6 -23 -6 -58 -1 -57 -2 -62 -15
-46 -7 11 -11 25 -8 33 3 8 2 22 -2 32 -5 9 -7 25 -6 35 1 10 -3 25 -10 33
-16 19 -100 16 -142 -5z"/>
<path d="M3760 2826 c0 -9 5 -16 10 -16 6 0 10 4 10 9 0 6 -4 13 -10 16 -5 3
-10 -1 -10 -9z"/>
<path d="M4880 2809 c0 -5 5 -7 10 -4 6 3 10 8 10 11 0 2 -4 4 -10 4 -5 0 -10
-5 -10 -11z"/>
<path d="M4120 2711 c1 -51 2 -54 15 -37 15 19 15 19 16 -5 1 -44 7 -61 30
-85 12 -13 25 -24 28 -24 4 0 6 46 6 103 l0 102 -47 1 -48 0 0 -55z"/>
<path d="M6050 2680 c0 -47 -3 -96 -7 -110 -6 -24 -4 -24 30 9 20 19 36 37 35
40 0 3 0 22 1 41 2 33 2 34 16 16 14 -18 15 -15 15 35 l0 54 -45 0 -45 0 0
-85z"/>
<path d="M4245 2663 c3 -43 6 -91 5 -108 0 -21 3 -26 9 -16 11 16 16 7 25 -41
6 -33 19 -47 54 -54 9 -2 11 8 8 39 -3 23 -9 83 -12 134 -4 51 -11 90 -16 87
-5 -3 -15 0 -23 6 -8 7 -15 9 -15 4 0 -5 -5 -1 -11 9 -21 36 -29 16 -24 -60z"/>
<path d="M5998 2726 c-10 -10 -18 -14 -18 -10 0 3 -6 1 -14 -5 -7 -6 -21 -8
-30 -5 -15 6 -17 -3 -15 -82 1 -49 -1 -110 -4 -136 -5 -42 -4 -46 14 -43 31 6
38 14 45 53 9 48 14 57 26 41 8 -11 9 -10 4 3 -3 10 -1 30 5 46 5 16 9 58 7
93 -3 60 -4 62 -20 45z"/>
<path d="M4373 2618 c-3 -78 6 -126 24 -124 12 1 17 -11 20 -43 2 -25 9 -53
14 -63 10 -18 57 -43 66 -34 2 2 -1 28 -7 57 -7 30 -11 91 -10 137 l2 82 -29
0 c-16 0 -38 7 -49 15 -28 21 -29 19 -31 -27z"/>
<path d="M5868 2649 c-2 -5 -22 -13 -44 -16 l-40 -5 1 -82 c1 -44 -2 -88 -5
-96 -4 -8 -10 -34 -14 -58 -6 -42 -6 -43 16 -37 40 13 56 35 63 91 3 30 11 54
16 54 5 0 9 -5 9 -12 0 -6 3 -8 8 -4 9 9 10 176 0 176 -3 0 -8 -5 -10 -11z"/>
<path d="M4509 2603 c-1 -15 3 -97 7 -133 3 -19 4 -45 4 -57 0 -12 5 -25 10
-28 6 -3 10 5 10 19 0 18 4 24 14 20 8 -3 12 -12 9 -20 -3 -8 0 -20 6 -28 6
-7 8 -16 5 -19 -12 -12 20 -64 49 -81 39 -22 52 -9 42 41 -5 21 -9 56 -9 78
-6 179 -3 167 -33 165 -44 -3 -50 -1 -82 26 -17 14 -31 22 -32 17z"/>
<path d="M5713 2578 c-16 -16 -33 -21 -62 -20 l-41 2 -2 -78 c-3 -135 -9 -189
-21 -208 -4 -7 3 -11 18 -11 14 0 25 4 25 10 0 6 3 7 7 4 11 -12 55 45 50 64
-3 11 -1 22 5 25 5 3 8 15 5 25 -3 10 2 24 10 31 14 11 15 7 12 -30 -3 -23 -1
-42 3 -42 5 0 9 8 9 18 1 9 3 26 5 37 10 64 12 83 14 110 4 51 0 85 -8 85 -4
0 -17 -10 -29 -22z"/>
<path d="M4688 2494 c-1 -55 -1 -62 8 -124 3 -25 6 -57 5 -72 0 -16 4 -28 9
-28 6 0 10 17 10 37 0 29 3 34 12 25 7 -7 13 -26 14 -42 3 -55 13 -77 43 -90
36 -15 87 -10 83 8 -3 16 -11 114 -17 216 l-4 71 -48 7 c-72 11 -80 13 -97 27
-14 12 -16 8 -18 -35z"/>
<path d="M5525 2519 c-22 -10 -56 -19 -76 -19 l-36 0 -7 -102 c-4 -57 -9 -127
-11 -155 l-4 -53 30 0 c16 0 43 7 59 15 23 12 29 23 35 63 9 70 24 88 26 32
l1 -45 10 35 c5 19 11 49 14 65 4 30 6 177 1 180 -1 1 -20 -6 -42 -16z"/>
<path d="M4892 2353 c0 -138 4 -163 20 -163 6 0 7 5 2 13 -5 6 -7 37 -4 67 6
64 19 47 25 -32 4 -54 19 -87 40 -89 22 -2 29 -4 40 -10 6 -3 28 -5 50 -4 l40
0 3 156 2 156 -68 1 c-39 0 -84 7 -106 16 -21 9 -40 16 -42 16 -2 0 -3 -57 -2
-127z"/>
<path d="M5320 2463 c-19 -8 -65 -15 -102 -15 l-68 -1 0 -136 c0 -177 1 -178
53 -175 23 1 42 3 42 4 0 1 11 3 24 6 36 7 53 25 48 51 -2 13 0 23 4 23 5 0 9
15 10 33 0 17 4 41 9 52 6 14 9 -2 9 -50 1 -38 5 -65 9 -58 10 16 15 283 5
282 -4 0 -24 -7 -43 -16z"/>
<path d="M4380 2461 c0 -6 5 -13 10 -16 6 -3 10 1 10 9 0 9 -4 16 -10 16 -5 0
-10 -4 -10 -9z"/>
<path d="M5865 2460 c-3 -5 -1 -10 4 -10 6 0 11 5 11 10 0 6 -2 10 -4 10 -3 0
-8 -4 -11 -10z"/>
<path d="M4530 2360 c0 -5 5 -10 10 -10 6 0 10 5 10 10 0 6 -4 10 -10 10 -5 0
-10 -4 -10 -10z"/>
</g>
</svg>
